# Blender 4.4.3
# www.blender.org
mtllib HERO_Model_3_AVeryNormalMan.mtl
o Circle
v 0.000000 0.177855 -1.000000
v -0.195090 0.177855 -0.980785
v -0.382683 0.177855 -0.923880
v -0.555570 0.177855 -0.831470
v -0.707107 0.177855 -0.707107
v -0.831470 0.177855 -0.555570
v -0.923880 0.177855 -0.382683
v -0.980785 0.177855 -0.195090
v -1.000000 0.177855 0.000000
v -0.980785 0.177855 0.195090
v -0.923880 0.177855 0.382683
v -0.831470 0.177855 0.555570
v -0.707107 0.177855 0.707107
v -0.555570 0.177855 0.831470
v -0.382683 0.177855 0.923880
v -0.195090 0.177855 0.980785
v 0.000000 0.177855 1.000000
v 0.195090 0.177855 0.980785
v 0.382683 0.177855 0.923880
v 0.555570 0.177855 0.831470
v 0.707107 0.177855 0.707107
v 0.831470 0.177855 0.555570
v 0.923880 0.177855 0.382683
v 0.980785 0.177855 0.195090
v 1.000000 0.177855 0.000000
v 0.980785 0.177855 -0.195090
v 0.923880 0.177855 -0.382683
v 0.831470 0.177855 -0.555570
v 0.707107 0.177855 -0.707107
v 0.555570 0.177855 -0.831470
v 0.382683 0.177855 -0.923880
v 0.195090 0.177855 -0.980785
v 0.000000 0.008680 -1.000000
v -0.195090 0.008680 -0.980785
v -0.382683 0.008680 -0.923880
v -0.555570 0.008680 -0.831470
v -0.707107 0.008680 -0.707107
v -0.831470 0.008680 -0.555570
v -0.923880 0.008680 -0.382683
v -0.980785 0.008680 -0.195090
v -1.000000 0.008680 0.000000
v -0.980785 0.008680 0.195090
v -0.923880 0.008680 0.382683
v -0.831470 0.008680 0.555570
v -0.707107 0.008680 0.707107
v -0.555570 0.008680 0.831470
v -0.382683 0.008680 0.923880
v -0.195090 0.008680 0.980785
v 0.000000 0.008680 1.000000
v 0.195090 0.008680 0.980785
v 0.382683 0.008680 0.923880
v 0.555570 0.008680 0.831470
v 0.707107 0.008680 0.707107
v 0.831470 0.008680 0.555570
v 0.923880 0.008680 0.382683
v 0.980785 0.008680 0.195090
v 1.000000 0.008680 0.000000
v 0.980785 0.008680 -0.195090
v 0.923880 0.008680 -0.382683
v 0.831470 0.008680 -0.555570
v 0.707107 0.008680 -0.707107
v 0.555570 0.008680 -0.831470
v 0.382683 0.008680 -0.923880
v 0.195090 0.008680 -0.980785
v -0.000000 0.173584 0.024049
v 0.004692 0.173584 0.023587
v 0.009203 0.173584 0.022219
v 0.013361 0.173584 0.019996
v 0.017005 0.173584 0.017005
v 0.019996 0.173584 0.013361
v 0.022219 0.173584 0.009203
v 0.023587 0.173584 0.004692
v 0.024049 0.173584 -0.000000
v 0.023587 0.173584 -0.004692
v 0.022219 0.173584 -0.009203
v 0.019996 0.173584 -0.013361
v 0.017005 0.173584 -0.017005
v 0.013361 0.173584 -0.019996
v 0.009203 0.173584 -0.022219
v 0.004692 0.173584 -0.023587
v -0.000000 0.173584 -0.024049
v -0.004692 0.173584 -0.023587
v -0.009203 0.173584 -0.022219
v -0.013361 0.173584 -0.019996
v -0.017005 0.173584 -0.017005
v -0.019996 0.173584 -0.013361
v -0.022219 0.173584 -0.009203
v -0.023587 0.173584 -0.004692
v -0.024049 0.173584 -0.000000
v -0.023587 0.173584 0.004692
v -0.022219 0.173584 0.009203
v -0.019996 0.173584 0.013361
v -0.017005 0.173584 0.017005
v -0.013361 0.173584 0.019996
v -0.009203 0.173584 0.022219
v -0.004692 0.173584 0.023587
vn -0.8819 -0.0000 0.4714
vn 0.9952 -0.0000 -0.0980
vn -0.7730 -0.0000 0.6344
vn 0.9569 -0.0000 -0.2903
vn -0.6344 -0.0000 0.7730
vn 0.8819 -0.0000 -0.4714
vn -0.4714 -0.0000 0.8819
vn -0.0980 -0.0000 -0.9952
vn 0.7730 -0.0000 -0.6344
vn -0.2903 -0.0000 0.9569
vn -0.2903 -0.0000 -0.9569
vn 0.6344 -0.0000 -0.7730
vn -0.0980 -0.0000 0.9952
vn -0.4714 -0.0000 -0.8819
vn 0.4714 -0.0000 -0.8819
vn 0.0980 -0.0000 0.9952
vn -0.6344 -0.0000 -0.7730
vn 0.2903 -0.0000 -0.9569
vn 0.2903 -0.0000 0.9569
vn -0.7730 -0.0000 -0.6344
vn 0.0980 -0.0000 -0.9952
vn 0.4714 -0.0000 0.8819
vn -0.8819 -0.0000 -0.4714
vn 0.6344 -0.0000 0.7730
vn -0.9569 -0.0000 -0.2903
vn 0.7730 -0.0000 0.6344
vn -0.9952 -0.0000 -0.0980
vn 0.8819 -0.0000 0.4714
vn -0.9952 -0.0000 0.0980
vn 0.9569 -0.0000 0.2903
vn -0.9569 -0.0000 0.2903
vn 0.9952 -0.0000 0.0980
vn 0.0037 1.0000 0.0020
vn -0.0027 1.0000 -0.0032
vn 0.0040 1.0000 0.0012
vn -0.0032 1.0000 -0.0027
vn 0.0042 1.0000 0.0004
vn -0.0037 1.0000 -0.0020
vn 0.0042 1.0000 -0.0004
vn -0.0040 1.0000 -0.0012
vn 0.0040 1.0000 -0.0012
vn -0.0042 1.0000 -0.0004
vn 0.0037 1.0000 -0.0020
vn -0.0042 1.0000 0.0004
vn 0.0032 1.0000 -0.0027
vn -0.0040 1.0000 0.0012
vn 0.0027 1.0000 -0.0032
vn -0.0037 1.0000 0.0020
vn 0.0020 1.0000 -0.0037
vn 0.0004 1.0000 0.0042
vn -0.0032 1.0000 0.0027
vn 0.0012 1.0000 -0.0040
vn 0.0012 1.0000 0.0040
vn -0.0027 1.0000 0.0032
vn 0.0004 1.0000 -0.0042
vn 0.0020 1.0000 0.0037
vn -0.0020 1.0000 0.0037
vn -0.0004 1.0000 -0.0042
vn 0.0027 1.0000 0.0032
vn -0.0012 1.0000 0.0040
vn -0.0012 1.0000 -0.0040
vn 0.0032 1.0000 0.0027
vn -0.0004 1.0000 0.0042
vn -0.0020 1.0000 -0.0037
vt 0.000000 0.000000
s 0
usemtl Material.001
f 12/1/1 11/1/1 43/1/1 44/1/1
f 26/1/2 25/1/2 57/1/2 58/1/2
f 13/1/3 12/1/3 44/1/3 45/1/3
f 27/1/4 26/1/4 58/1/4 59/1/4
f 14/1/5 13/1/5 45/1/5 46/1/5
f 28/1/6 27/1/6 59/1/6 60/1/6
f 15/1/7 14/1/7 46/1/7 47/1/7
f 2/1/8 1/1/8 33/1/8 34/1/8
f 29/1/9 28/1/9 60/1/9 61/1/9
f 16/1/10 15/1/10 47/1/10 48/1/10
f 3/1/11 2/1/11 34/1/11 35/1/11
f 30/1/12 29/1/12 61/1/12 62/1/12
f 17/1/13 16/1/13 48/1/13 49/1/13
f 4/1/14 3/1/14 35/1/14 36/1/14
f 31/1/15 30/1/15 62/1/15 63/1/15
f 18/1/16 17/1/16 49/1/16 50/1/16
f 5/1/17 4/1/17 36/1/17 37/1/17
f 32/1/18 31/1/18 63/1/18 64/1/18
f 19/1/19 18/1/19 50/1/19 51/1/19
f 6/1/20 5/1/20 37/1/20 38/1/20
f 1/1/21 32/1/21 64/1/21 33/1/21
f 20/1/22 19/1/22 51/1/22 52/1/22
f 7/1/23 6/1/23 38/1/23 39/1/23
f 21/1/24 20/1/24 52/1/24 53/1/24
f 8/1/25 7/1/25 39/1/25 40/1/25
f 22/1/26 21/1/26 53/1/26 54/1/26
f 9/1/27 8/1/27 40/1/27 41/1/27
f 23/1/28 22/1/28 54/1/28 55/1/28
f 10/1/29 9/1/29 41/1/29 42/1/29
f 24/1/30 23/1/30 55/1/30 56/1/30
f 11/1/31 10/1/31 42/1/31 43/1/31
f 25/1/32 24/1/32 56/1/32 57/1/32
f 6/1/33 7/1/33 71/1/33 70/1/33
f 20/1/34 21/1/34 85/1/34 84/1/34
f 7/1/35 8/1/35 72/1/35 71/1/35
f 21/1/36 22/1/36 86/1/36 85/1/36
f 8/1/37 9/1/37 73/1/37 72/1/37
f 22/1/38 23/1/38 87/1/38 86/1/38
f 9/1/39 10/1/39 74/1/39 73/1/39
f 23/1/40 24/1/40 88/1/40 87/1/40
f 10/1/41 11/1/41 75/1/41 74/1/41
f 24/1/42 25/1/42 89/1/42 88/1/42
f 11/1/43 12/1/43 76/1/43 75/1/43
f 25/1/44 26/1/44 90/1/44 89/1/44
f 12/1/45 13/1/45 77/1/45 76/1/45
f 26/1/46 27/1/46 91/1/46 90/1/46
f 13/1/47 14/1/47 78/1/47 77/1/47
f 27/1/48 28/1/48 92/1/48 91/1/48
f 14/1/49 15/1/49 79/1/49 78/1/49
f 1/1/50 2/1/50 66/1/50 65/1/50
f 28/1/51 29/1/51 93/1/51 92/1/51
f 15/1/52 16/1/52 80/1/52 79/1/52
f 2/1/53 3/1/53 67/1/53 66/1/53
f 29/1/54 30/1/54 94/1/54 93/1/54
f 16/1/55 17/1/55 81/1/55 80/1/55
f 3/1/56 4/1/56 68/1/56 67/1/56
f 30/1/57 31/1/57 95/1/57 94/1/57
f 17/1/58 18/1/58 82/1/58 81/1/58
f 4/1/59 5/1/59 69/1/59 68/1/59
f 31/1/60 32/1/60 96/1/60 95/1/60
f 18/1/61 19/1/61 83/1/61 82/1/61
f 5/1/62 6/1/62 70/1/62 69/1/62
f 32/1/63 1/1/63 65/1/63 96/1/63
f 19/1/64 20/1/64 84/1/64 83/1/64
o Cube.001
v -0.282721 0.164439 0.388229
v -0.282721 0.496883 0.388229
v -0.282721 0.164439 -0.388229
v -0.282721 0.496883 -0.388229
v 0.282721 0.164439 0.388229
v 0.282721 0.496883 0.388229
v 0.282721 0.164439 -0.388229
v 0.282721 0.496883 -0.388229
vn -1.0000 -0.0000 -0.0000
vn -0.0000 -0.0000 -1.0000
vn 1.0000 -0.0000 -0.0000
vn -0.0000 -0.0000 1.0000
vn -0.0000 -1.0000 -0.0000
vn -0.0000 1.0000 -0.0000
vt 0.375000 0.000000
vt 0.625000 0.000000
vt 0.625000 0.250000
vt 0.375000 0.250000
vt 0.625000 0.500000
vt 0.375000 0.500000
vt 0.625000 0.750000
vt 0.375000 0.750000
vt 0.625000 1.000000
vt 0.375000 1.000000
vt 0.125000 0.500000
vt 0.125000 0.750000
vt 0.875000 0.500000
vt 0.875000 0.750000
s 0
usemtl Material.002
f 97/2/65 98/3/65 100/4/65 99/5/65
f 99/5/66 100/4/66 104/6/66 103/7/66
f 103/7/67 104/6/67 102/8/67 101/9/67
f 101/9/68 102/8/68 98/10/68 97/11/68
f 99/12/69 103/7/69 101/9/69 97/13/69
f 104/6/70 100/14/70 98/15/70 102/8/70
o Circle.001
v 0.000000 0.246125 -0.909076
v -0.177352 0.246125 -0.891608
v -0.347888 0.246125 -0.839876
v -0.505055 0.246125 -0.755869
v -0.642814 0.246125 -0.642814
v -0.755869 0.246125 -0.505055
v -0.839876 0.246125 -0.347888
v -0.891608 0.246125 -0.177352
v -0.909076 0.246125 0.000000
v -0.891608 0.246125 0.177352
v -0.839876 0.246125 0.347888
v -0.755869 0.246125 0.505055
v -0.642814 0.246125 0.642814
v -0.505055 0.246125 0.755869
v -0.347888 0.246125 0.839876
v -0.177352 0.246125 0.891608
v 0.000000 0.246125 0.909076
v 0.177352 0.246125 0.891608
v 0.347888 0.246125 0.839876
v 0.505055 0.246125 0.755869
v 0.642814 0.246125 0.642814
v 0.755869 0.246125 0.505055
v 0.839876 0.246125 0.347888
v 0.891608 0.246125 0.177352
v 0.909076 0.246125 0.000000
v 0.891608 0.246125 -0.177352
v 0.839876 0.246125 -0.347888
v 0.755869 0.246125 -0.505055
v 0.642814 0.246125 -0.642814
v 0.505055 0.246125 -0.755869
v 0.347888 0.246125 -0.839876
v 0.177352 0.246125 -0.891608
v 0.000000 0.092332 -0.909076
v -0.177352 0.092332 -0.891608
v -0.347888 0.092332 -0.839876
v -0.505055 0.092332 -0.755869
v -0.642814 0.092332 -0.642814
v -0.755869 0.092332 -0.505055
v -0.839876 0.092332 -0.347888
v -0.891608 0.092332 -0.177352
v -0.909076 0.092332 0.000000
v -0.891608 0.092332 0.177352
v -0.839876 0.092332 0.347888
v -0.755869 0.092332 0.505055
v -0.642814 0.092332 0.642814
v -0.505055 0.092332 0.755869
v -0.347888 0.092332 0.839876
v -0.177352 0.092332 0.891608
v 0.000000 0.092332 0.909076
v 0.177352 0.092332 0.891608
v 0.347888 0.092332 0.839876
v 0.505055 0.092332 0.755869
v 0.642814 0.092332 0.642814
v 0.755869 0.092332 0.505055
v 0.839876 0.092332 0.347888
v 0.891608 0.092332 0.177352
v 0.909076 0.092332 0.000000
v 0.891608 0.092332 -0.177352
v 0.839876 0.092332 -0.347888
v 0.755869 0.092332 -0.505055
v 0.642814 0.092332 -0.642814
v 0.505055 0.092332 -0.755869
v 0.347888 0.092332 -0.839876
v 0.177352 0.092332 -0.891608
v -0.000000 0.242241 0.021863
v 0.004265 0.242241 0.021442
v 0.008366 0.242241 0.020198
v 0.012146 0.242241 0.018178
v 0.015459 0.242241 0.015459
v 0.018178 0.242241 0.012146
v 0.020198 0.242241 0.008366
v 0.021442 0.242241 0.004265
v 0.021863 0.242241 -0.000000
v 0.021442 0.242241 -0.004265
v 0.020198 0.242241 -0.008366
v 0.018178 0.242241 -0.012146
v 0.015459 0.242241 -0.015459
v 0.012146 0.242241 -0.018178
v 0.008366 0.242241 -0.020198
v 0.004265 0.242241 -0.021443
v -0.000000 0.242241 -0.021863
v -0.004265 0.242241 -0.021443
v -0.008366 0.242241 -0.020198
v -0.012146 0.242241 -0.018178
v -0.015459 0.242241 -0.015459
v -0.018178 0.242241 -0.012146
v -0.020198 0.242241 -0.008366
v -0.021443 0.242241 -0.004265
v -0.021863 0.242241 -0.000000
v -0.021443 0.242241 0.004265
v -0.020198 0.242241 0.008366
v -0.018178 0.242241 0.012146
v -0.015459 0.242241 0.015459
v -0.012146 0.242241 0.018178
v -0.008366 0.242241 0.020198
v -0.004265 0.242241 0.021442
vn -0.8819 -0.0000 0.4714
vn 0.9952 -0.0000 -0.0980
vn -0.7730 -0.0000 0.6344
vn 0.9569 -0.0000 -0.2903
vn -0.6344 -0.0000 0.7730
vn 0.8819 -0.0000 -0.4714
vn -0.4714 -0.0000 0.8819
vn -0.0980 -0.0000 -0.9952
vn 0.7730 -0.0000 -0.6344
vn -0.2903 -0.0000 0.9569
vn -0.2903 -0.0000 -0.9569
vn 0.6344 -0.0000 -0.7730
vn -0.0980 -0.0000 0.9952
vn -0.4714 -0.0000 -0.8819
vn 0.4714 -0.0000 -0.8819
vn 0.0980 -0.0000 0.9952
vn -0.6344 -0.0000 -0.7730
vn 0.2903 -0.0000 -0.9569
vn 0.2903 -0.0000 0.9569
vn -0.7730 -0.0000 -0.6344
vn 0.0980 -0.0000 -0.9952
vn 0.4714 -0.0000 0.8819
vn -0.8819 -0.0000 -0.4714
vn 0.6344 -0.0000 0.7730
vn -0.9569 -0.0000 -0.2903
vn 0.7730 -0.0000 0.6344
vn -0.9952 -0.0000 -0.0980
vn 0.8819 -0.0000 0.4714
vn -0.9952 -0.0000 0.0980
vn 0.9569 -0.0000 0.2903
vn -0.9569 -0.0000 0.2903
vn 0.9952 -0.0000 0.0980
vn 0.0037 1.0000 0.0020
vn -0.0027 1.0000 -0.0032
vn 0.0040 1.0000 0.0012
vn -0.0032 1.0000 -0.0027
vn 0.0042 1.0000 0.0004
vn -0.0037 1.0000 -0.0020
vn 0.0042 1.0000 -0.0004
vn -0.0040 1.0000 -0.0012
vn 0.0040 1.0000 -0.0012
vn -0.0042 1.0000 -0.0004
vn 0.0037 1.0000 -0.0020
vn -0.0042 1.0000 0.0004
vn 0.0032 1.0000 -0.0027
vn -0.0040 1.0000 0.0012
vn 0.0027 1.0000 -0.0032
vn -0.0037 1.0000 0.0020
vn 0.0020 1.0000 -0.0037
vn 0.0004 1.0000 0.0042
vn -0.0032 1.0000 0.0027
vn 0.0012 1.0000 -0.0040
vn 0.0012 1.0000 0.0040
vn -0.0027 1.0000 0.0032
vn 0.0004 1.0000 -0.0042
vn 0.0020 1.0000 0.0037
vn -0.0020 1.0000 0.0037
vn -0.0004 1.0000 -0.0042
vn 0.0027 1.0000 0.0032
vn -0.0012 1.0000 0.0040
vn -0.0012 1.0000 -0.0040
vn 0.0032 1.0000 0.0027
vn -0.0004 1.0000 0.0042
vn -0.0020 1.0000 -0.0037
vt 0.000000 0.000000
s 0
usemtl Material.005
f 116/16/71 115/16/71 147/16/71 148/16/71
f 130/16/72 129/16/72 161/16/72 162/16/72
f 117/16/73 116/16/73 148/16/73 149/16/73
f 131/16/74 130/16/74 162/16/74 163/16/74
f 118/16/75 117/16/75 149/16/75 150/16/75
f 132/16/76 131/16/76 163/16/76 164/16/76
f 119/16/77 118/16/77 150/16/77 151/16/77
f 106/16/78 105/16/78 137/16/78 138/16/78
f 133/16/79 132/16/79 164/16/79 165/16/79
f 120/16/80 119/16/80 151/16/80 152/16/80
f 107/16/81 106/16/81 138/16/81 139/16/81
f 134/16/82 133/16/82 165/16/82 166/16/82
f 121/16/83 120/16/83 152/16/83 153/16/83
f 108/16/84 107/16/84 139/16/84 140/16/84
f 135/16/85 134/16/85 166/16/85 167/16/85
f 122/16/86 121/16/86 153/16/86 154/16/86
f 109/16/87 108/16/87 140/16/87 141/16/87
f 136/16/88 135/16/88 167/16/88 168/16/88
f 123/16/89 122/16/89 154/16/89 155/16/89
f 110/16/90 109/16/90 141/16/90 142/16/90
f 105/16/91 136/16/91 168/16/91 137/16/91
f 124/16/92 123/16/92 155/16/92 156/16/92
f 111/16/93 110/16/93 142/16/93 143/16/93
f 125/16/94 124/16/94 156/16/94 157/16/94
f 112/16/95 111/16/95 143/16/95 144/16/95
f 126/16/96 125/16/96 157/16/96 158/16/96
f 113/16/97 112/16/97 144/16/97 145/16/97
f 127/16/98 126/16/98 158/16/98 159/16/98
f 114/16/99 113/16/99 145/16/99 146/16/99
f 128/16/100 127/16/100 159/16/100 160/16/100
f 115/16/101 114/16/101 146/16/101 147/16/101
f 129/16/102 128/16/102 160/16/102 161/16/102
f 110/16/103 111/16/103 175/16/103 174/16/103
f 124/16/104 125/16/104 189/16/104 188/16/104
f 111/16/105 112/16/105 176/16/105 175/16/105
f 125/16/106 126/16/106 190/16/106 189/16/106
f 112/16/107 113/16/107 177/16/107 176/16/107
f 126/16/108 127/16/108 191/16/108 190/16/108
f 113/16/109 114/16/109 178/16/109 177/16/109
f 127/16/110 128/16/110 192/16/110 191/16/110
f 114/16/111 115/16/111 179/16/111 178/16/111
f 128/16/112 129/16/112 193/16/112 192/16/112
f 115/16/113 116/16/113 180/16/113 179/16/113
f 129/16/114 130/16/114 194/16/114 193/16/114
f 116/16/115 117/16/115 181/16/115 180/16/115
f 130/16/116 131/16/116 195/16/116 194/16/116
f 117/16/117 118/16/117 182/16/117 181/16/117
f 131/16/118 132/16/118 196/16/118 195/16/118
f 118/16/119 119/16/119 183/16/119 182/16/119
f 105/16/120 106/16/120 170/16/120 169/16/120
f 132/16/121 133/16/121 197/16/121 196/16/121
f 119/16/122 120/16/122 184/16/122 183/16/122
f 106/16/123 107/16/123 171/16/123 170/16/123
f 133/16/124 134/16/124 198/16/124 197/16/124
f 120/16/125 121/16/125 185/16/125 184/16/125
f 107/16/126 108/16/126 172/16/126 171/16/126
f 134/16/127 135/16/127 199/16/127 198/16/127
f 121/16/128 122/16/128 186/16/128 185/16/128
f 108/16/129 109/16/129 173/16/129 172/16/129
f 135/16/130 136/16/130 200/16/130 199/16/130
f 122/16/131 123/16/131 187/16/131 186/16/131
f 109/16/132 110/16/132 174/16/132 173/16/132
f 136/16/133 105/16/133 169/16/133 200/16/133
f 123/16/134 124/16/134 188/16/134 187/16/134
o Cube.002
v -1.059595 0.314203 0.144327
v -1.059595 0.645483 0.144327
v -1.059595 0.314203 -0.128947
v -1.059595 0.645483 -0.128947
v 1.059595 0.314203 0.144327
v 1.059595 0.645483 0.144327
v 1.059595 0.314203 -0.128947
v 1.059595 0.645483 -0.128947
v -0.833843 2.730954 0.144326
v -0.833843 2.730954 -0.128947
v 0.944576 2.730954 0.144326
v 0.944576 2.730954 -0.128947
v -0.280970 2.915509 0.144326
v -0.280970 2.915509 -0.128947
v 0.567927 2.915509 0.144326
v 0.567927 2.915509 -0.128947
v -0.273280 3.118221 0.144326
v -0.273280 3.118221 -0.128947
v 0.598686 3.118221 0.144326
v 0.598686 3.118221 -0.128947
v 0.408156 3.685614 0.144326
v 0.408156 3.685614 -0.128947
v 0.654957 3.525278 0.144326
v 0.654957 3.525278 -0.128947
v 0.566331 3.731179 0.136822
v 0.566331 3.731179 -0.121443
v 0.632305 3.688319 0.136822
v 0.632305 3.688319 -0.121443
vn -1.0000 -0.0000 -0.0000
vn -0.0000 -0.0000 -1.0000
vn 1.0000 -0.0000 -0.0000
vn -0.0000 -0.0000 1.0000
vn -0.0000 -1.0000 -0.0000
vn 0.9985 0.0551 -0.0000
vn -0.3166 0.9485 -0.0000
vn -0.9942 0.1076 -0.0000
vn 0.9887 -0.1500 -0.0000
vn 0.4400 0.8980 -0.0000
vn -0.9993 0.0379 -0.0000
vn 0.9905 0.1376 -0.0000
vn 0.9906 -0.1369 -0.0000
vn -0.6399 0.7685 -0.0000
vn 0.5448 0.8386 -0.0000
vn -0.2768 0.9609 -0.0000
vn 0.0328 0.0505 0.9982
vn 0.0328 0.0505 -0.9982
vt 0.375000 0.000000
vt 0.625000 0.000000
vt 0.625000 0.250000
vt 0.375000 0.250000
vt 0.625000 0.500000
vt 0.375000 0.500000
vt 0.625000 0.750000
vt 0.375000 0.750000
vt 0.625000 1.000000
vt 0.375000 1.000000
vt 0.125000 0.500000
vt 0.125000 0.750000
vt 0.875000 0.500000
vt 0.875000 0.750000
s 0
usemtl Material
f 201/17/135 202/18/135 204/19/135 203/20/135
f 203/20/136 204/19/136 208/21/136 207/22/136
f 207/22/137 208/21/137 206/23/137 205/24/137
f 205/24/138 206/23/138 202/25/138 201/26/138
f 203/27/139 207/22/139 205/24/139 201/28/139
f 206/23/140 208/21/140 212/21/140 211/23/140
f 210/19/141 209/18/141 213/18/141 214/19/141
f 204/19/142 202/18/142 209/18/142 210/19/142
f 202/25/138 206/23/138 211/23/138 209/25/138
f 208/21/136 204/19/136 210/19/136 212/21/136
f 215/23/143 216/21/143 220/21/143 219/23/143
f 209/25/138 211/23/138 215/23/138 213/25/138
f 212/21/136 210/19/136 214/19/136 216/21/136
f 211/23/144 212/21/144 216/21/144 215/23/144
f 217/25/138 219/23/138 223/23/138 221/25/138
f 214/19/145 213/18/145 217/18/145 218/19/145
f 213/25/138 215/23/138 219/23/138 217/25/138
f 216/21/136 214/19/136 218/19/136 220/21/136
f 223/23/146 224/21/146 228/21/146 227/23/146
f 220/21/136 218/19/136 222/19/136 224/21/136
f 219/23/147 220/21/147 224/21/147 223/23/147
f 218/19/148 217/18/148 221/18/148 222/19/148
f 228/21/149 226/29/149 225/30/149 227/23/149
f 222/19/150 221/18/150 225/18/150 226/19/150
f 221/25/151 223/23/151 227/23/151 225/25/151
f 224/21/152 222/19/152 226/19/152 228/21/152
o Cube.003
v -0.923869 0.385396 0.169524
v -0.923869 0.700338 0.169524
v -0.923869 0.385396 -0.154144
v -0.923869 0.700338 -0.154144
v 0.923869 0.385396 0.169524
v 0.923869 0.700338 0.169524
v 0.923869 0.385396 -0.154144
v 0.923869 0.700338 -0.154144
v -0.727034 2.682960 0.169524
v -0.727034 2.682960 -0.154144
v 0.823583 2.682960 0.169524
v 0.823583 2.682960 -0.154144
v -0.244980 2.858413 0.169524
v -0.244980 2.858413 -0.154144
v 0.495180 2.858413 0.169524
v 0.495180 2.858413 -0.154144
v -0.238275 3.051128 0.169524
v -0.238275 3.051128 -0.154144
v 0.521999 3.051128 0.169524
v 0.521999 3.051128 -0.154144
v 0.355874 3.590538 0.169524
v 0.355874 3.590538 -0.154144
v 0.571062 3.438110 0.169524
v 0.571062 3.438110 -0.154144
v 0.493788 3.633857 0.160636
v 0.493788 3.633857 -0.145256
v 0.551311 3.593110 0.160636
v 0.551311 3.593110 -0.145256
vn -1.0000 -0.0000 -0.0000
vn -0.0000 -0.0000 -1.0000
vn 1.0000 -0.0000 -0.0000
vn -0.0000 -0.0000 1.0000
vn -0.0000 -1.0000 -0.0000
vn 0.9987 0.0505 -0.0000
vn -0.3420 0.9397 -0.0000
vn -0.9951 0.0988 -0.0000
vn 0.9905 -0.1378 -0.0000
vn 0.4712 0.8820 -0.0000
vn -0.9994 0.0348 -0.0000
vn 0.9920 0.1264 -0.0000
vn 0.9921 -0.1258 -0.0000
vn -0.6722 0.7404 -0.0000
vn 0.5780 0.8160 -0.0000
vn -0.2997 0.9540 -0.0000
vn 0.0445 0.0628 0.9970
vn 0.0445 0.0628 -0.9970
vt 0.375000 0.000000
vt 0.625000 0.000000
vt 0.625000 0.250000
vt 0.375000 0.250000
vt 0.625000 0.500000
vt 0.375000 0.500000
vt 0.625000 0.750000
vt 0.375000 0.750000
vt 0.625000 1.000000
vt 0.375000 1.000000
vt 0.125000 0.500000
vt 0.125000 0.750000
vt 0.875000 0.500000
vt 0.875000 0.750000
s 0
usemtl Material.007
f 229/31/153 230/32/153 232/33/153 231/34/153
f 231/34/154 232/33/154 236/35/154 235/36/154
f 235/36/155 236/35/155 234/37/155 233/38/155
f 233/38/156 234/37/156 230/39/156 229/40/156
f 231/41/157 235/36/157 233/38/157 229/42/157
f 234/37/158 236/35/158 240/35/158 239/37/158
f 238/33/159 237/32/159 241/32/159 242/33/159
f 232/33/160 230/32/160 237/32/160 238/33/160
f 230/39/156 234/37/156 239/37/156 237/39/156
f 236/35/154 232/33/154 238/33/154 240/35/154
f 243/37/161 244/35/161 248/35/161 247/37/161
f 237/39/156 239/37/156 243/37/156 241/39/156
f 240/35/154 238/33/154 242/33/154 244/35/154
f 239/37/162 240/35/162 244/35/162 243/37/162
f 245/39/156 247/37/156 251/37/156 249/39/156
f 242/33/163 241/32/163 245/32/163 246/33/163
f 241/39/156 243/37/156 247/37/156 245/39/156
f 244/35/154 242/33/154 246/33/154 248/35/154
f 251/37/164 252/35/164 256/35/164 255/37/164
f 248/35/154 246/33/154 250/33/154 252/35/154
f 247/37/165 248/35/165 252/35/165 251/37/165
f 246/33/166 245/32/166 249/32/166 250/33/166
f 256/35/167 254/43/167 253/44/167 255/37/167
f 250/33/168 249/32/168 253/32/168 254/33/168
f 249/39/169 251/37/169 255/37/169 253/39/169
f 252/35/170 250/33/170 254/33/170 256/35/170
